<svg xmlns="http://www.w3.org/2000/svg" viewBox="0 0 64 64"><rect width="64" height="64" fill="#fff" rx="17.92" ry="17.92"/><path fill="#18181b" d="M30.672 43.271c-1.182 0-2.224-.261-3.125-.771q-1.335-.789-2.083-2.25c-.49-.984-.73-2.167-.73-3.542V25.854h4.667v10.021q0 1.648.813 2.562.828.897 2.312.896c.651 0 1.229-.135 1.729-.416.5-.292.886-.709 1.167-1.25.292-.552.437-1.23.437-2.021v-9.792h4.667V43h-4.479l-.042-4.354h.459q-.751 2.212-2.167 3.416-1.422 1.21-3.625 1.209m.229-19.563 2.333-4.875h4.417l-3.5 4.875Zm0 0"/></svg>