<svg version="1.2" xmlns="http://www.w3.org/2000/svg" viewBox="0 0 330 120" width="330" height="120">
	<style>
		.s0 { fill: #18181b } 
		.s1 { fill: #ffffff } 
	</style>
	<path fill-rule="evenodd" class="s0" d="m38 10h44c15.46 0 28 12.54 28 28v44c0 15.46-12.54 28-28 28h-44c-15.46 0-28-12.54-28-28v-44c0-15.46 12.54-28 28-28z"/>
	<path class="s1" d="m57.46 76.96q-2.85 0-5-1.23-2.13-1.25-3.29-3.59-1.17-2.36-1.17-5.64v-17.3h7.42v15.99q0 2.61 1.32 4.06 1.31 1.44 3.65 1.44 1.57 0 2.77-0.68 1.2-0.68 1.89-1.98 0.68-1.31 0.68-3.2v-15.63h7.42v27.34h-7.12l-0.07-6.93h0.72q-1.19 3.51-3.46 5.44-2.26 1.91-5.76 1.91zm0.36-31.18l3.74-7.78h7.02l-5.55 7.78z"/>
	<path class="s0" d="m147.21 83.95q-3.93 0-6.91-1.69-2.96-1.68-4.65-4.94-1.65-3.24-1.65-7.92v-24.03h8.96v22.64q-0.01 3.94 1.98 6.12 1.97 2.16 5.52 2.16 2.36 0 4.2-1 1.83-1 2.9-2.99 1.06-2 1.06-4.91v-22.02h8.96v38.01h-8.6l-0.06-9.48h1.03q-1.66 5.03-4.87 7.53-3.2 2.52-7.87 2.52zm36.03-12.51v-10.7h1.24l14.08-15.37h10.55l-17.09 18.71h-1.83zm-8.16 11.95v-51.62h8.96v51.62zm24.21 0l-12.68-17.3 6.03-6.29 17.35 23.59zm29.08 0.79q-5.57 0.01-9.7-2.45-4.14-2.45-6.41-6.89-2.25-4.43-2.25-10.34 0-5.88 2.25-10.32 2.27-4.46 6.41-6.95 4.13-2.48 9.7-2.48 5.58 0 9.69 2.48 4.1 2.49 6.39 6.95 2.27 4.44 2.27 10.32 0 5.91-2.27 10.34-2.29 4.44-6.39 6.89-4.11 2.46-9.69 2.45zm0-7.3q3.04 0 5.11-1.59 2.09-1.62 3.13-4.41 1.07-2.8 1.07-6.38 0-3.61-1.07-6.39-1.04-2.8-3.13-4.4-2.07-1.63-5.11-1.63-3.02 0-5.12 1.63-2.07 1.6-3.13 4.4-1.04 2.78-1.04 6.39 0 3.58 1.04 6.38 1.06 2.79 3.13 4.41 2.06 1.59 5.12 1.59zm33.12-45.11v51.62h-8.95v-51.62zm7.5 51.62v-38.02h8.95v38.02zm4.47-43.49q-2.2 0-3.73-1.42-1.5-1.44-1.5-3.51 0-2.1 1.5-3.52 1.53-1.45 3.73-1.45 2.18 0 3.72 1.45 0.37 0.33 0.66 0.73 0.29 0.41 0.49 0.86 0.2 0.46 0.3 0.94 0.1 0.49 0.09 0.99-0.01 2.07-1.54 3.51-1.54 1.42-3.72 1.42zm28.66 44.28q-5.56 0.01-9.69-2.45-4.15-2.45-6.42-6.89-2.25-4.43-2.25-10.34 0-5.88 2.25-10.32 2.27-4.46 6.42-6.95 4.13-2.48 9.69-2.48 5.59 0 9.7 2.48 4.1 2.49 6.38 6.95 2.27 4.44 2.28 10.32-0.01 5.91-2.28 10.34-2.28 4.44-6.38 6.89-4.11 2.46-9.7 2.45zm0-7.3q3.04 0 5.11-1.59 2.1-1.62 3.14-4.41 1.06-2.8 1.06-6.38 0-3.61-1.06-6.39-1.04-2.8-3.14-4.4-2.07-1.63-5.11-1.63-3.02 0-5.11 1.63-2.07 1.6-3.14 4.4-1.03 2.78-1.03 6.39 0 3.58 1.03 6.38 1.07 2.79 3.14 4.41 2.06 1.59 5.11 1.59z"/>
</svg>